<svg width="240" height="240" viewBox="0 0 240 240" fill="none" xmlns="http://www.w3.org/2000/svg">
<circle cx="120" cy="120" r="119.5" fill="#000839" stroke="#000839"/>
<path d="M144.529 136.138C144.529 168.705 118.327 195.1 86.0144 195.1C53.7013 195.1 27.5 168.705 27.5 136.138C27.5 103.571 53.7013 77.1768 86.0144 77.1768C118.327 77.1768 144.529 103.571 144.529 136.138Z" fill="#FFA41B" stroke="#FFA41B"/>
<path d="M89.3094 133.151L154.81 56.5136L183.231 168.835L89.3094 133.151Z" fill="#000839"/>
<rect x="121.267" y="100.301" width="35.9267" height="8.5685" rx="4.28425" fill="#00818A" stroke="#00818A"/>
<rect x="139.73" y="116.362" width="71.6811" height="8.5685" rx="4.28425" fill="#3FC5F0" stroke="#3FC5F0"/>
<rect x="130.353" y="130.373" width="53.2177" height="8.5685" rx="4.28425" fill="#F45905" stroke="#F45905"/>
<path d="M170.12 87.12L161.288 90.6L170.12 94.08V95.568L159.68 91.392V89.808L170.12 85.608V87.12ZM179.125 78.792H180.685L172.765 101.4H171.205L179.125 78.792ZM191.964 89.808V91.392L181.524 95.568V94.08L190.356 90.6L181.524 87.12V85.608L191.964 89.808Z" fill="white"/>
<path d="M69.7773 107.729C69.7773 112.565 65.8875 116.478 61.0973 116.478C56.307 116.478 52.4172 112.565 52.4172 107.729C52.4172 102.893 56.307 98.9794 61.0973 98.9794C65.8875 98.9794 69.7773 102.893 69.7773 107.729Z" fill="black" stroke="black"/>
</svg>
